<?xml version="1.0" encoding="utf-8"?>
<svg xmlns="http://www.w3.org/2000/svg" viewBox="0 0 48 48" width="48" height="48">
  <path d="M15.470703 4.9863281 A 1.50015 1.50015 0 0 0 14.439453 5.4394531L8.5 11.378906L6.5605469 9.4394531 A 1.50015 1.50015 0 1 0 4.4394531 11.560547L7.4394531 14.560547 A 1.50015 1.50015 0 0 0 9.5605469 14.560547L16.560547 7.5605469 A 1.50015 1.50015 0 0 0 15.470703 4.9863281 z M 21.5 9 A 1.50015 1.50015 0 1 0 21.5 12L42.5 12 A 1.50015 1.50015 0 1 0 42.5 9L21.5 9 z M 15.470703 18.486328 A 1.50015 1.50015 0 0 0 14.439453 18.939453L8.5 24.878906L6.5605469 22.939453 A 1.50015 1.50015 0 1 0 4.4394531 25.060547L7.4394531 28.060547 A 1.50015 1.50015 0 0 0 9.5605469 28.060547L16.560547 21.060547 A 1.50015 1.50015 0 0 0 15.470703 18.486328 z M 21.5 22.5 A 1.50015 1.50015 0 1 0 21.5 25.5L42.5 25.5 A 1.50015 1.50015 0 1 0 42.5 22.5L21.5 22.5 z M 13.486328 31.978516 A 1.50015 1.50015 0 0 0 12.439453 32.439453L10 34.878906L7.5605469 32.439453 A 1.50015 1.50015 0 0 0 6.484375 31.984375 A 1.50015 1.50015 0 0 0 5.4394531 34.560547L7.8789062 37L5.4394531 39.439453 A 1.50015 1.50015 0 1 0 7.5605469 41.560547L10 39.121094L12.439453 41.560547 A 1.50015 1.50015 0 1 0 14.560547 39.439453L12.121094 37L14.560547 34.560547 A 1.50015 1.50015 0 0 0 13.486328 31.978516 z M 21.5 36 A 1.50015 1.50015 0 1 0 21.5 39L42.5 39 A 1.50015 1.50015 0 1 0 42.5 36L21.5 36 z" fill="#3A8985" />
</svg>