<?xml version="1.0" encoding="utf-8"?>
<svg xmlns="http://www.w3.org/2000/svg" viewBox="0 0 48 48" width="48" height="48">
  <path d="M14.960938 4.9804688 A 2.0002 2.0002 0 0 0 13.585938 5.5859375L8.5 10.671875L7.4140625 9.5859375 A 2.0002 2.0002 0 1 0 4.5859375 12.414062L7.0859375 14.914062 A 2.0002 2.0002 0 0 0 9.9140625 14.914062L16.414062 8.4140625 A 2.0002 2.0002 0 0 0 14.960938 4.9804688 z M 22 8 A 2.0002 2.0002 0 1 0 22 12L42 12 A 2.0002 2.0002 0 1 0 42 8L22 8 z M 14.960938 18.480469 A 2.0002 2.0002 0 0 0 13.585938 19.085938L8.5 24.171875L7.4140625 23.085938 A 2.0002 2.0002 0 1 0 4.5859375 25.914062L7.0859375 28.414062 A 2.0002 2.0002 0 0 0 9.9140625 28.414062L16.414062 21.914062 A 2.0002 2.0002 0 0 0 14.960938 18.480469 z M 22 22 A 2.0002 2.0002 0 1 0 22 26L42 26 A 2.0002 2.0002 0 1 0 42 22L22 22 z M 12.982422 31.970703 A 2.0002 2.0002 0 0 0 11.585938 32.585938L10 34.171875L8.4140625 32.585938 A 2.0002 2.0002 0 0 0 6.9785156 31.980469 A 2.0002 2.0002 0 0 0 5.5859375 35.414062L7.171875 37L5.5859375 38.585938 A 2.0002 2.0002 0 1 0 8.4140625 41.414062L10 39.828125L11.585938 41.414062 A 2.0002 2.0002 0 1 0 14.414062 38.585938L12.828125 37L14.414062 35.414062 A 2.0002 2.0002 0 0 0 12.982422 31.970703 z M 22 36 A 2.0002 2.0002 0 1 0 22 40L42 40 A 2.0002 2.0002 0 1 0 42 36L22 36 z" fill="#3A8985" />
</svg>