<?xml version="1.0" encoding="utf-8"?>
<svg xmlns="http://www.w3.org/2000/svg" viewBox="0 0 48 48" width="144" height="144">
  <path d="M39.115234 -0.048828125 A 1.50015 1.50015 0 0 0 38.070312 2.5273438L39.605469 4.0625L38.076172 5.3613281L36.378906 3.6640625 A 1.50015 1.50015 0 0 0 35.302734 3.2089844 A 1.50015 1.50015 0 0 0 34.257812 5.7851562L35.78125 7.3085938L35.771484 7.3164062C35.413986 7.6743657 35.229275 8.1353128 35.201172 8.6035156 A 1.50015 1.50015 0 0 0 35.017578 8.7421875L28.53125 14.580078C26.853994 13.390304 24.861644 12.832986 22.890625 12.919922C20.703503 13.016392 18.54546 13.897899 16.882812 15.560547L14.453125 17.990234 A 1.50015 1.50015 0 0 0 14.171875 19.722656C14.43163 20.242166 14.124945 21.81288 12.925781 22.878906C11.72662 23.944932 10.035779 24.535261 7.6992188 23.367188 A 1.50015 1.50015 0 0 0 5.96875 23.646484L4.6054688 25.009766C0.16736172 29.447872 0.10828862 36.639319 4.4101562 41.162109L1.9726562 44.412109C1.6286562 44.871109 1.6740781 45.513922 2.0800781 45.919922C2.4850781 46.325922 3.1288437 46.372297 3.5898438 46.029297L6.8398438 43.591797C11.362756 47.891734 18.552785 47.831981 22.990234 43.394531L24.353516 42.03125 A 1.50015 1.50015 0 0 0 24.632812 40.300781C23.464707 37.964158 24.055215 36.27332 25.121094 35.074219C26.186972 33.875117 27.758971 33.568054 28.279297 33.828125 A 1.50015 1.50015 0 0 0 30.009766 33.546875L32.439453 31.117188C35.600168 27.956473 35.929723 23.006916 33.419922 19.46875L39.257812 12.982422 A 1.50015 1.50015 0 0 0 39.396484 12.798828C39.864553 12.770457 40.326095 12.584983 40.683594 12.226562L40.689453 12.21875L42.001953 13.53125 A 1.50015 1.50015 0 1 0 44.123047 11.410156L42.636719 9.9238281L43.9375 8.3945312L45.21875 9.6757812 A 1.50015 1.50015 0 1 0 47.339844 7.5546875L45.884766 6.0996094L47.257812 4.4804688C47.915812 3.6914687 47.861766 2.5297344 47.134766 1.8027344L46.197266 0.86328125C45.470266 0.13628125 44.309531 0.0841875 43.519531 0.7421875L41.900391 2.1152344L40.191406 0.40625 A 1.50015 1.50015 0 0 0 39.115234 -0.048828125 z M 35.966797 11.925781L36.074219 12.033203L25.355469 23.941406L24.058594 22.644531L35.966797 11.925781 z M 23.027344 15.90625C24.125297 15.858904 25.233322 16.109732 26.222656 16.658203L20.875 21.470703 A 1.50015 1.50015 0 0 0 20.818359 23.646484L24.353516 27.181641 A 1.50015 1.50015 0 0 0 26.529297 27.125L31.341797 21.777344C32.61955 24.081999 32.284343 27.03011 30.318359 28.996094L28.46875 30.845703C26.462946 30.46072 24.356443 31.417865 22.878906 33.080078C21.312658 34.84209 20.593094 37.621625 21.59375 40.546875L20.869141 41.271484C17.681824 44.458801 12.66013 44.616231 9.2832031 41.757812L13.039062 38.941406C13.600062 38.520406 13.658109 37.699125 13.162109 37.203125L10.798828 34.839844C10.302828 34.342844 9.4815469 34.401891 9.0605469 34.962891L6.2421875 38.71875C3.3828032 35.341814 3.5408537 30.318522 6.7285156 27.130859L7.453125 26.40625C10.378427 27.406866 13.157964 26.687433 14.919922 25.121094C16.582084 23.643471 17.539415 21.536915 17.154297 19.53125L19.003906 17.681641C20.126259 16.559288 21.567576 15.969198 23.027344 15.90625 z M 16.207031 27.435547 A 1.50015 1.50015 0 0 0 15.162109 30.009766L17.990234 32.837891 A 1.50015 1.50015 0 1 0 20.111328 30.716797L17.283203 27.888672 A 1.50015 1.50015 0 0 0 16.207031 27.435547 z" fill="#3A8985" />
</svg>