<?xml version="1.0" encoding="utf-8"?>
<svg xmlns="http://www.w3.org/2000/svg" viewBox="0 0 26 26" width="52" height="52">
  <path d="M13 0.1875C7.027344 0.1875 2.1875 2.339844 2.1875 5C2.1875 7.660156 7.027344 9.8125 13 9.8125C18.972656 9.8125 23.8125 7.660156 23.8125 5C23.8125 2.339844 18.972656 0.1875 13 0.1875 Z M 2.1875 6.3125L2.1875 10C2.1875 12.660156 7.027344 14.8125 13 14.8125C18.972656 14.8125 23.8125 12.660156 23.8125 10L23.8125 6.3125C23.8125 8.972656 18.972656 11.125 13 11.125C7.027344 11.125 2.1875 8.972656 2.1875 6.3125 Z M 2.1875 11.3125L2.1875 15C2.1875 17.660156 7.027344 19.8125 13 19.8125C18.972656 19.8125 23.8125 17.660156 23.8125 15L23.8125 11.3125C23.8125 13.972656 18.972656 16.125 13 16.125C7.027344 16.125 2.1875 13.972656 2.1875 11.3125 Z M 2.1875 16.3125L2.1875 20C2.1875 22.660156 7.027344 24.8125 13 24.8125C18.972656 24.8125 23.8125 22.660156 23.8125 20L23.8125 16.3125C23.8125 18.972656 18.972656 21.125 13 21.125C7.027344 21.125 2.1875 18.972656 2.1875 16.3125Z" fill="#3096BD" />
</svg>