<svg version="1.1" xmlns="http://www.w3.org/2000/svg" xmlns:xlink="http://www.w3.org/1999/xlink" width="512" height="512" viewBox="0,0,256,256"><g transform="translate(25.6,25.6) scale(0.8,0.8)"><g fill="#e1fdfc" fill-rule="nonzero" stroke="none" stroke-width="1" stroke-linecap="butt" stroke-linejoin="miter" stroke-miterlimit="10" stroke-dasharray="" stroke-dashoffset="0" font-family="none" font-weight="none" font-size="none" text-anchor="none" style="mix-blend-mode: normal"><path d="M128,288c-88.36556,0 -160,-71.63444 -160,-160v0c0,-88.36556 71.63444,-160 160,-160v0c88.36556,0 160,71.63444 160,160v0c0,88.36556 -71.63444,160 -160,160z" id="shape"></path></g><g fill="#3096bd" fill-rule="nonzero" stroke="none" stroke-width="1" stroke-linecap="butt" stroke-linejoin="miter" stroke-miterlimit="10" stroke-dasharray="" stroke-dashoffset="0" font-family="none" font-weight="none" font-size="none" text-anchor="none" style="mix-blend-mode: normal"><g transform="translate(1.65454,4) scale(4,4)"><path d="M34.74414,1c0,0 -10.61133,5.07923 -6.23633,19.74023c0.116,0.389 0.27142,1.08305 0.48242,1.99805c-7.564,4.333 -12.14908,11.4838 -10.95508,16.9668c1.108,5.087 5.7053,10.75247 16.6543,9.23047c0.072,0.332 0.13083,0.59992 0.17383,0.79492c0.915,4.167 0.13559,6.76094 -2.31641,7.71094c-0.67681,0.26177 -1.30961,0.30896 -1.89062,0.23438c0.92117,-1.14756 1.10277,-2.72166 0.4671,-4.04883c-0.63568,-1.32717 -1.97601,-2.17231 -3.44756,-2.17382c-1.50917,-0.00069 -2.87781,0.8856 -3.49458,2.26299c-0.61676,1.37738 -0.36646,2.98861 0.63911,4.11397c0.00195,0.00196 0.0039,0.00391 0.00586,0.00586c1.04221,1.43263 3.46107,3.16406 6.3125,3.16406c4.508,0 8.65373,-4.11866 6.92773,-11.97266l-6.24805,-28.59766l-0.00195,0.00391c-2.149,-7.903 2.83594,-12.68945 2.83594,-12.68945c0,0 1.6958,1.94966 1.7168,4.47266c0.01,1.255 -0.24755,3.26289 -2.56055,6.08789l1.40234,5.9707c4.506,-5.08 4.27811,-10.81036 4.28711,-12.56836c0.033,-6.593 -4.75391,-10.70703 -4.75391,-10.70703zM30.15234,28.0918l0.7832,3.50781c-5.456,3.343 -4.41308,8.71655 -3.45508,10.93555l1.89063,-0.87891c-0.06,-0.139 -0.85937,-3.67444 2.51563,-5.77344l2.11523,9.84375c-7.194,1.447 -10.27247,-3.36263 -10.73047,-6.14062c-0.648,-3.927 1.04986,-7.27314 6.88086,-11.49414zM37.63281,30.08594c-0.36958,-0.01296 -0.72497,-0.00653 -1.05859,0.01172l1.07422,4.57031c1.065,0.323 2.12753,1.05262 2.51953,2.64063c0.525,2.125 0.01258,3.7797 -0.73242,4.9707l0.9707,4.14258c2.666,-1.874 6.20622,-5.52591 4.44922,-11.00391c-1.3545,-4.22362 -4.6356,-5.24135 -7.22266,-5.33203z"></path></g></g></g></svg>