<?xml version="1.0" encoding="utf-8"?>
<svg xmlns="http://www.w3.org/2000/svg" viewBox="0 0 48 48" width="48" height="48">
  <path d="M15.5 3C13.833333 3 11.720735 3.2496874 9.8359375 3.9746094C8.8935389 4.3370704 7.9974779 4.8189283 7.2675781 5.5488281C6.5376783 6.2787279 6 7.3333333 6 8.5C6 9.6041667 6.466091 10.657173 7.1855469 11.355469C7.9050028 12.053764 8.789297 12.449347 9.7207031 12.732422C11.583515 13.298571 13.756723 13.432923 15.867188 13.619141C17.977652 13.805358 20.01844 14.047722 21.308594 14.541016C21.953671 14.787663 22.385237 15.079588 22.628906 15.365234C22.765175 15.524978 22.774177 15.792696 22.835938 16L14.5 16L9.5 16C7.0324991 16 5 18.032499 5 20.5L5 38.5C5 40.967501 7.0324991 43 9.5 43L38.5 43C40.967501 43 43 40.967501 43 38.5L43 20.5C43 18.032499 40.967501 16 38.5 16L33.554688 16L26 16L26 11.5C26 9.12675 25.05565 6.8818234 23.216797 5.3476562C21.377944 3.8134891 18.756418 3 15.5 3 z M 15.5 6C18.257582 6 20.137275 6.6865109 21.294922 7.6523438C22.452569 8.6181766 23 9.87325 23 11.5L23 12.152344C22.775844 12.043203 22.611676 11.829235 22.378906 11.740234C20.48156 11.014778 18.272348 10.819642 16.132812 10.630859C13.993277 10.442077 11.916485 10.263929 10.591797 9.8613281C9.9294529 9.6600275 9.4856222 9.4071733 9.2753906 9.203125C9.065159 8.9990767 9 8.8958333 9 8.5C9 8.1666667 9.0873217 7.9712721 9.3886719 7.6699219C9.6900221 7.3685717 10.231462 7.0379296 10.914062 6.7753906C12.279266 6.2503126 14.166667 6 15.5 6 z M 9.5 19L13.228516 19L14.019531 23.746094 A 1.50015 1.50015 0 0 0 15.5 25L32.5 25 A 1.50015 1.50015 0 0 0 33.980469 23.746094L34.771484 19L38.5 19C39.346499 19 40 19.653501 40 20.5L40 38.5C40 39.346499 39.346499 40 38.5 40L9.5 40C8.6535009 40 8 39.346499 8 38.5L8 20.5C8 19.653501 8.6535009 19 9.5 19 z M 16.271484 19L31.728516 19L31.228516 22L16.771484 22L16.271484 19 z M 16.5 27 A 1.50015 1.50015 0 0 0 15.869141 27.130859C14.770311 27.28175 13.77583 27.713617 13.128906 28.441406C12.353997 29.313179 12 30.416667 12 31.5C12 32.583333 12.353997 33.686821 13.128906 34.558594C13.776288 35.286899 14.771286 35.720616 15.871094 35.871094 A 1.50015 1.50015 0 0 0 16.5 36L31.5 36 A 1.50015 1.50015 0 0 0 32.130859 35.869141C33.229689 35.71825 34.22417 35.286383 34.871094 34.558594C35.646003 33.686821 36 32.583333 36 31.5C36 30.416667 35.646003 29.313179 34.871094 28.441406C34.223712 27.713101 33.228714 27.279384 32.128906 27.128906 A 1.50015 1.50015 0 0 0 31.5 27L16.5 27 z M 16.5 30C17.124999 30 17.403816 30.180367 17.628906 30.433594C17.853997 30.686821 18 31.083333 18 31.5C18 31.916667 17.853997 32.313179 17.628906 32.566406C17.403816 32.819633 17.124999 33 16.5 33C15.875001 33 15.596184 32.819633 15.371094 32.566406C15.146003 32.313179 15 31.916667 15 31.5C15 31.083333 15.146003 30.686821 15.371094 30.433594C15.596184 30.180367 15.875001 30 16.5 30 z M 20.746094 30L27.253906 30C27.093415 30.488176 27 30.995198 27 31.5C27 32.004802 27.09342 32.511824 27.253906 33L20.746094 33C20.906585 32.511824 21 32.004802 21 31.5C21 30.995198 20.906585 30.488176 20.746094 30 z M 31.5 30C32.124999 30 32.403816 30.180367 32.628906 30.433594C32.853997 30.686821 33 31.083333 33 31.5C33 31.916667 32.853997 32.313179 32.628906 32.566406C32.403816 32.819633 32.124999 33 31.5 33C30.875001 33 30.596184 32.819633 30.371094 32.566406C30.146003 32.313179 30 31.916667 30 31.5C30 31.083333 30.146003 30.686821 30.371094 30.433594C30.596184 30.180367 30.875001 30 31.5 30 z" fill="#3A8985" />
</svg>