<?xml version="1.0" encoding="utf-8"?>
<svg xmlns="http://www.w3.org/2000/svg" viewBox="0 0 48 48" width="48" height="48">
  <path d="M7.5 9C6.671 9 6 9.672 6 10.5C6 11.328 6.671 12 7.5 12L22.064453 12C22.084453 11.981 22.106953 11.9565 22.126953 11.9375L22.572266 11.583984C22.677266 11.515984 22.775047 11.460203 22.873047 11.408203L23.09375 11.296875C23.24175 11.228875 23.419469 11.166188 23.605469 11.117188L23.841797 11.033203L24.017578 11.033203C24.176578 11.012203 24.339 11 24.5 11L24.800781 11.021484C24.902781 11.030484 24.994078 11.040734 25.080078 11.052734L25.322266 11.097656L28.931641 12L40.5 12C41.329 12 42 11.328 42 10.5C42 9.672 41.329 9 40.5 9L7.5 9 z M 24.417969 13.001953 A 1.50015 1.50015 0 0 0 23 14.5L23 15.5L23 20.5L23 27.128906C22.191725 26.762458 21.295706 26.5 20.25 26.5C16.843138 26.5 14.5 28.753206 14.5 31.25C14.5 33.746794 16.843138 36 20.25 36C23.129545 36 25.153066 34.36724 25.740234 32.361328 A 1.50015 1.50015 0 0 0 26 31.5L26 31.25L26 22.421875L32.136719 23.955078 A 1.50015 1.50015 0 0 0 34 22.5L34 18.060547C34 16.461977 32.899428 15.054341 31.349609 14.666016L24.863281 13.044922 A 1.50015 1.50015 0 0 0 24.417969 13.001953 z M 7.5 16C6.671 16 6 16.672 6 17.5C6 18.328 6.671 19 7.5 19L21 19L21 16L7.5 16 z M 35.583984 16C35.843984 16.642 36 17.3345 36 18.0625L36 19L40.5 19C41.329 19 42 18.328 42 17.5C42 16.672 41.329 16 40.5 16L35.583984 16 z M 26 16.421875L30.621094 17.576172C30.851275 17.633847 31 17.825117 31 18.060547L31 20.578125L26 19.328125L26 16.421875 z M 7.5 23C6.671 23 6 23.672 6 24.5C6 25.328 6.671 26 7.5 26L15.390625 26C16.721625 25.064 18.41 24.5 20.25 24.5C20.5 24.5 20.751 24.51025 21 24.53125L21 23L7.5 23 z M 35.962891 23C35.872891 23.955 35.420297 24.830687 34.654297 25.429688C34.325297 25.686688 33.950688 25.875 33.554688 26L40.5 26C41.329 26 42 25.328 42 24.5C42 23.672 41.329 23 40.5 23L35.962891 23 z M 20.25 29.5C22.509802 29.5 23 30.496794 23 31.25C23 32.003206 22.509802 33 20.25 33C17.990198 33 17.5 32.003206 17.5 31.25C17.5 30.496794 17.990198 29.5 20.25 29.5 z M 7.5 30C6.671 30 6 30.672 6 31.5C6 32.328 6.671 33 7.5 33L12.773438 33C12.600437 32.441 12.5 31.856 12.5 31.25C12.5 30.823 12.550672 30.406 12.638672 30L7.5 30 z M 28 30L28 31.5C28 31.77 27.966484 32.039312 27.896484 32.320312C27.854484 32.551313 27.793609 32.777 27.724609 33L40.5 33C41.329 33 42 32.328 42 31.5C42 30.672 41.329 30 40.5 30L28 30 z M 7.5 37C6.671 37 6 37.672 6 38.5C6 39.328 6.671 40 7.5 40L40.5 40C41.329 40 42 39.328 42 38.5C42 37.672 41.329 37 40.5 37L24.279297 37C23.095297 37.633 21.712 38 20.25 38C18.769 38 17.388938 37.63 16.210938 37L7.5 37 z" fill="#3A8985" />
</svg>