<?xml version="1.0" encoding="utf-8"?>
<svg xmlns="http://www.w3.org/2000/svg" viewBox="0 0 48 48" width="48" height="48">
  <path d="M24 4C12.972066 4 4 12.972074 4 24C4 35.027926 12.972066 44 24 44C35.027934 44 44 35.027926 44 24C44 12.972074 35.027934 4 24 4 z M 24 7C33.406615 7 41 14.593391 41 24C41 33.406609 33.406615 41 24 41C14.593385 41 7 33.406609 7 24C7 14.593391 14.593385 7 24 7 z M 31.115234 12.042969C30.967893 12.03482 30.816688 12.042234 30.664062 12.068359L19.664062 13.945312C18.703062 14.109312 18 14.942969 18 15.917969L18 26.890625C18 27.310625 17.749844 27.679062 17.339844 27.789062L15.339844 28.539062C14.119844 28.909063 13.199297 29.959766 13.029297 31.259766C12.893297 32.281766 13.221203 33.420297 14.408203 34.279297C15.021203 34.723297 15.776203 34.939453 16.533203 34.939453L16.609375 34.939453C19.249375 34.939453 21 32.800391 21 30.150391L20.992188 20.416016C20.992188 19.926016 21.346078 19.507734 21.830078 19.427734L28.837891 18.273438C29.446891 18.173437 30 18.644719 30 19.261719L30 23.939453C30 24.369453 29.749844 24.739844 29.339844 24.839844L27.339844 25.599609C26.119844 25.959609 25.199297 27.018594 25.029297 28.308594C24.948297 28.938594 25.032234 29.569219 25.365234 30.199219C25.970234 31.343219 27.220672 32 28.513672 32L28.609375 32C31.034375 32 33 30.034375 33 27.609375L33 14.039062C33 12.954937 32.146627 12.100008 31.115234 12.042969 z" fill="#3A8985" />
</svg>