<?xml version="1.0" encoding="utf-8"?>
<svg xmlns="http://www.w3.org/2000/svg" viewBox="0 0 48 48" width="48" height="48">
  <path d="M7.5 8C5.0324991 8 3 10.032499 3 12.5L3 32.5C3 32.694963 3.0340042 32.881569 3.0585938 33.070312 A 1.50015 1.50015 0 0 0 3 33.5L3 37.5C3 39.967501 5.0324991 42 7.5 42L40.5 42C42.967501 42 45 39.967501 45 37.5L45 33.5 A 1.50015 1.50015 0 0 0 44.941406 33.068359C44.965832 32.880232 45 32.694302 45 32.5L45 12.5C45 10.032499 42.967501 8 40.5 8L29 8C26.951606 8 25.194111 9.0224819 24 10.517578C22.805889 9.0224819 21.048394 8 19 8L7.5 8 z M 7.5 11L19 11C20.950062 11 22.5 12.549938 22.5 14.5 A 1.50015 1.50015 0 0 0 22.505859 14.650391 A 1.50015 1.50015 0 0 0 22.525391 14.798828 A 1.50015 1.50015 0 0 0 22.560547 14.943359 A 1.50015 1.50015 0 0 0 22.609375 15.085938 A 1.50015 1.50015 0 0 0 22.839844 15.470703 A 1.50015 1.50015 0 0 0 22.939453 15.582031 A 1.50015 1.50015 0 0 0 23.050781 15.683594 A 1.50015 1.50015 0 0 0 23.4375 15.912109 A 1.50015 1.50015 0 0 0 23.578125 15.960938 A 1.50015 1.50015 0 0 0 23.724609 15.996094 A 1.50015 1.50015 0 0 0 23.873047 16.015625 A 1.50015 1.50015 0 0 0 24.171875 16.011719 A 1.50015 1.50015 0 0 0 24.464844 15.947266 A 1.50015 1.50015 0 0 0 24.865234 15.746094 A 1.50015 1.50015 0 0 0 24.984375 15.654297 A 1.50015 1.50015 0 0 0 25.273438 15.3125 A 1.50015 1.50015 0 0 0 25.498047 14.605469 A 1.50015 1.50015 0 0 0 25.5 14.5C25.5 12.549938 27.049938 11 29 11L40.5 11C41.346499 11 42 11.653501 42 12.5L42 32.5C42 33.346499 41.346499 34 40.5 34L30.472656 34C27.969665 34 25.632747 35.080504 24 36.884766C22.367253 35.080504 20.030335 34 17.527344 34L7.5 34C6.6535009 34 6 33.346499 6 32.5L6 12.5C6 11.653501 6.6535009 11 7.5 11 z M 25 18C24.988 18 24.978797 18.006812 24.966797 18.007812C24.851797 18.011813 24.738859 18.031219 24.630859 18.074219C24.610859 18.082219 24.594219 18.094516 24.574219 18.103516C24.528219 18.125516 24.481453 18.142875 24.439453 18.171875C24.397453 18.199875 24.363172 18.235531 24.326172 18.269531C24.311172 18.283531 24.29525 18.295547 24.28125 18.310547C24.20325 18.391547 24.142703 18.484937 24.095703 18.585938C24.085703 18.607937 24.077359 18.629344 24.068359 18.652344C24.028359 18.762344 24 18.878 24 19L24 22L24 26.404297C23.413 26.153297 22.738 26 22 26C19.757 26 18 27.318 18 29C18 30.682 19.757 32 22 32C24.243 32 26 30.682 26 29L26 23.476562L29.628906 24.927734C29.749906 24.976734 29.875 25 30 25C30.197 25 30.392547 24.942125 30.560547 24.828125C30.834547 24.642125 31 24.332 31 24L31 22.353516C31 21.119516 30.259281 20.027359 29.113281 19.568359L25.371094 18.070312C25.263094 18.027313 25.150109 18.012812 25.037109 18.007812C25.024109 18.007812 25.014 18 25 18 z M 6 36.720703C6.4720958 36.890843 6.9725476 37 7.5 37L17.527344 37C19.217274 37 20.774782 37.754959 21.845703 39L7.5 39C6.6535009 39 6 38.346499 6 37.5L6 36.720703 z M 42 36.720703L42 37.5C42 38.346499 41.346499 39 40.5 39L26.150391 39C27.221674 37.753956 28.781747 37 30.472656 37L40.5 37C41.027452 37 41.527904 36.890843 42 36.720703 z" fill="#3A8985" />
</svg>