<svg xmlns="http://www.w3.org/2000/svg" viewBox="0 0 48 48">
  <path d="M23.919922 4C12.873922 4 3.9199219 12.954 3.9199219 24C3.9199219 35.046 12.873922 44 23.919922 44C34.965922 44 43.919922 35.046 43.919922 24C43.919922 12.954 34.965922 4 23.919922 4 z M 19.498047 16.154297C19.737047 16.154297 19.977219 16.211125 20.199219 16.328125L32.251953 22.673828C32.746953 22.933828 33.053734 23.442953 33.052734 24.001953C33.052734 24.560953 32.746953 25.068125 32.251953 25.328125L20.199219 31.671875C19.978219 31.787875 19.737047 31.845703 19.498047 31.845703C19.230047 31.845703 18.963609 31.772906 18.724609 31.628906C18.270609 31.354906 18 30.87375 18 30.34375L18 17.65625C18 17.12625 18.270609 16.645094 18.724609 16.371094C18.963609 16.226094 19.231047 16.154297 19.498047 16.154297 z" fill="#3A8985" />
</svg>