<?xml version="1.0" encoding="utf-8"?>
<svg xmlns="http://www.w3.org/2000/svg" viewBox="0 0 48 48" width="96" height="96">
  <path d="M20.5 4C19.671 4 19 4.672 19 5.5L19 6.0957031C19 7.0617031 18.422516 7.9225 17.478516 8.3125C16.580516 8.6905 15.559953 8.4886406 14.876953 7.8066406L14.455078 7.3847656C14.174078 7.1027656 13.792531 6.9433594 13.394531 6.9433594C12.996531 6.9433594 12.614031 7.1018125 12.332031 7.3828125L7.3828125 12.332031C7.1008125 12.613031 6.9433594 12.996531 6.9433594 13.394531C6.9433594 13.792531 7.1027656 14.173078 7.3847656 14.455078L7.8046875 14.876953C8.4876875 15.560953 8.6880156 16.58125 8.2910156 17.53125C7.9230156 18.42325 7.0607031 19 6.0957031 19L5.5 19C4.671 19 4 19.672 4 20.5L4 27.5C4 28.328 4.671 29 5.5 29L6.0957031 29C7.0607031 29 7.9235 29.576484 8.3125 30.521484C8.6875 31.419484 8.4866875 32.442 7.8046875 33.125L7.3847656 33.546875C7.1027656 33.827875 6.9433594 34.208422 6.9433594 34.607422C6.9433594 35.004422 7.1018125 35.387922 7.3828125 35.669922L12.332031 40.619141C12.613031 40.900141 12.996531 41.058594 13.394531 41.058594C13.792531 41.058594 14.173078 40.899187 14.455078 40.617188L14.876953 40.197266C15.561953 39.514266 16.58225 39.312938 17.53125 39.710938C18.42225 40.076937 19 40.938297 19 41.904297L19 42.5C19 43.328 19.671 44 20.5 44L27.5 44C28.329 44 29 43.328 29 42.5L29 41.904297C29 40.938297 29.577484 40.0775 30.521484 39.6875C31.421484 39.3125 32.441047 39.512359 33.123047 40.193359L33.544922 40.615234C33.825922 40.897234 34.207469 41.056641 34.605469 41.056641C35.003469 41.056641 35.385969 40.898188 35.667969 40.617188L40.617188 35.667969C40.899187 35.386969 41.056641 35.003469 41.056641 34.605469C41.056641 34.207469 40.897234 33.826922 40.615234 33.544922L40.195312 33.123047C39.512313 32.439047 39.311984 31.41875 39.708984 30.46875C40.076984 29.57675 40.939297 29 41.904297 29L42.5 29C43.329 29 44 28.328 44 27.5L44 20.5C44 19.672 43.329 19 42.5 19L41.904297 19C40.939297 19 40.0765 18.423516 39.6875 17.478516C39.3125 16.580516 39.513313 15.558 40.195312 14.875L40.615234 14.453125C40.897234 14.172125 41.056641 13.791578 41.056641 13.392578C41.056641 12.995578 40.898188 12.612078 40.617188 12.330078L35.667969 7.3808594C35.386969 7.0998594 35.003469 6.9414063 34.605469 6.9414062C34.207469 6.9414062 33.826922 7.1008125 33.544922 7.3828125L33.123047 7.8027344C32.439047 8.4867344 31.41975 8.6880625 30.46875 8.2890625C29.57775 7.9230625 29 7.0617031 29 6.0957031L29 5.5C29 4.672 28.329 4 27.5 4L20.5 4 z M 22.5 13.619141L22.5 19.308594C21.614196 19.572933 20.809782 19.972296 20.253906 20.597656C19.395664 21.563179 19 22.791667 19 24C19 24.36587 19.109189 24.724174 19.183594 25.085938L14.259766 27.910156C13.773865 26.700916 13.5 25.383022 13.5 24C13.5 18.711663 17.413495 14.348697 22.5 13.619141 z M 25.5 13.619141C30.586505 14.348697 34.5 18.711663 34.5 24C34.5 25.383022 34.226135 26.700916 33.740234 27.910156L28.814453 25.09375C28.88996 24.729437 29 24.368537 29 24C29 22.791667 28.604336 21.563179 27.746094 20.597656C27.190218 19.972296 26.385804 19.572933 25.5 19.308594L25.5 13.619141 z M 24 22C24.791666 22 25.195482 22.242867 25.503906 22.589844C25.81233 22.936821 26 23.458333 26 24C26 24.541667 25.81233 25.063179 25.503906 25.410156C25.195482 25.757133 24.791666 26 24 26C23.208334 26 22.804518 25.757133 22.496094 25.410156C22.18767 25.063179 22 24.541667 22 24C22 23.458333 22.18767 22.936821 22.496094 22.589844C22.804518 22.242867 23.208334 22 24 22 z M 20.662109 27.695312C21.515585 28.461174 22.652933 29 24 29C25.342671 29 26.475197 28.462687 27.328125 27.701172L32.232422 30.503906C30.309341 32.935145 27.340564 34.5 24 34.5C20.658455 34.5 17.688652 32.934417 15.765625 30.501953L20.662109 27.695312 z" fill="#3A8985" />
</svg>