<?xml version="1.0" encoding="utf-8"?>
<svg xmlns="http://www.w3.org/2000/svg" viewBox="0 0 48 48" width="144" height="144">
  <path d="M15.5 5C13.032499 5 11 7.0324991 11 9.5L11 32L10.21875 32C7.9069572 32 6 33.906957 6 36.21875L6 38.5C6 41.519774 8.4802259 44 11.5 44L35.5 44C38.519774 44 41 41.519774 41 38.5L41 9.5C41 7.0324991 38.967501 5 36.5 5L15.5 5 z M 15.5 8L36.5 8C37.346499 8 38 8.6535009 38 9.5L38 38.5C38 39.898226 36.898226 41 35.5 41C34 41 33.741989 40.562796 33.394531 39.685547C33.047073 38.808298 33.001953 37.453489 33.001953 36.40625C33.001953 33.929749 30.905803 32 28.492188 32L14 32L14 9.5C14 8.6535009 14.653501 8 15.5 8 z M 26 14C25.988 14 25.978797 14.006813 25.966797 14.007812C25.851797 14.011812 25.738859 14.031219 25.630859 14.074219C25.610859 14.082219 25.594219 14.094516 25.574219 14.103516C25.528219 14.125516 25.481453 14.142875 25.439453 14.171875C25.397453 14.199875 25.363172 14.235531 25.326172 14.269531C25.311172 14.283531 25.29525 14.295547 25.28125 14.310547C25.20325 14.391547 25.142703 14.484937 25.095703 14.585938C25.085703 14.607938 25.077359 14.629344 25.068359 14.652344C25.028359 14.762344 25 14.878 25 15L25 18L25 22.404297C24.413 22.153297 23.738 22 23 22C20.757 22 19 23.318 19 25C19 26.682 20.757 28 23 28C25.243 28 27 26.682 27 25L27 19.476562L30.628906 20.927734C30.749906 20.976734 30.875 21 31 21C31.197 21 31.392547 20.942125 31.560547 20.828125C31.834547 20.642125 32 20.332 32 20L32 18.353516C32 17.119516 31.259281 16.027359 30.113281 15.568359L26.371094 14.070312C26.263094 14.027313 26.150109 14.012813 26.037109 14.007812C26.024109 14.007812 26.014 14 26 14 z M 10.21875 35L28.492188 35C29.322571 35 30.001953 35.638751 30.001953 36.40625C30.001953 37.453011 29.953423 39.144764 30.605469 40.791016C30.636219 40.868656 30.735921 40.92289 30.771484 41L11.5 41C10.101774 41 9 39.898226 9 38.5L9 36.21875C9 35.528543 9.5285428 35 10.21875 35 z" fill="#3A8985" />
</svg>